<svg width="24" height="24" viewBox="0 0 24 24" fill="none" xmlns="http://www.w3.org/2000/svg">
<path d="M15.9907 9.99426C15.9907 11.0545 15.5695 12.0713 14.8198 12.8211C14.0701 13.5708 13.0533 13.9919 11.993 13.9919C10.9328 13.9919 9.91597 13.5708 9.16626 12.8211C8.41654 12.0713 7.99536 11.0545 7.99536 9.99426" stroke="#90A1B9" stroke-width="1.99884" stroke-linecap="round" stroke-linejoin="round"/>
<path d="M3.1012 6.03052H20.8849" stroke="#90A1B9" stroke-width="1.99884" stroke-linecap="round" stroke-linejoin="round"/>
<path d="M3.39806 5.46389C3.13857 5.80989 2.99829 6.23071 2.99829 6.6632V19.9885C2.99829 20.5186 3.20888 21.027 3.58374 21.4019C3.95859 21.7767 4.46701 21.9873 4.99713 21.9873H18.989C19.5192 21.9873 20.0276 21.7767 20.4024 21.4019C20.7773 21.027 20.9879 20.5186 20.9879 19.9885V6.6632C20.9879 6.23071 20.8476 5.80989 20.5881 5.46389L18.5893 2.79844C18.4031 2.55019 18.1616 2.3487 17.8841 2.20992C17.6065 2.07115 17.3005 1.9989 16.9902 1.9989H6.99598C6.68566 1.9989 6.37962 2.07115 6.10207 2.20992C5.82452 2.3487 5.58309 2.55019 5.3969 2.79844L3.39806 5.46389Z" stroke="#90A1B9" stroke-width="1.99884" stroke-linecap="round" stroke-linejoin="round"/>
</svg>
