<svg width="24" height="24" viewBox="0 0 24 24" fill="none" xmlns="http://www.w3.org/2000/svg">
<path d="M14.9913 20.9878V12.9925C14.9913 12.7274 14.886 12.4732 14.6986 12.2858C14.5112 12.0983 14.2569 11.993 13.9919 11.993H9.9942C9.72914 11.993 9.47493 12.0983 9.28751 12.2858C9.10008 12.4732 8.99478 12.7274 8.99478 12.9925V20.9878" stroke="#155DFC" stroke-width="1.99884" stroke-linecap="round" stroke-linejoin="round"/>
<path d="M2.99826 9.99426C2.99819 9.7035 3.06156 9.41622 3.18394 9.15247C3.30632 8.88871 3.48478 8.65483 3.70685 8.46715L10.7028 2.47062C11.0636 2.1657 11.5207 1.99841 11.993 1.99841C12.4654 1.99841 12.9225 2.1657 13.2833 2.47062L20.2792 8.46715C20.5013 8.65483 20.6798 8.88871 20.8022 9.15247C20.9245 9.41622 20.9879 9.7035 20.9878 9.99426V18.989C20.9878 19.5192 20.7772 20.0276 20.4024 20.4024C20.0275 20.7773 19.5191 20.9879 18.989 20.9879H4.9971C4.46698 20.9879 3.95856 20.7773 3.58371 20.4024C3.20885 20.0276 2.99826 19.5192 2.99826 18.989V9.99426Z" stroke="#155DFC" stroke-width="1.99884" stroke-linecap="round" stroke-linejoin="round"/>
</svg>
